#!OML:ASF H:\Male1\Project 1\Capture day 1\Session 1\Male1.ASF
:FULLY-SPECIFIED
:DEGREES
666
root 28.0087 15.3375 -10.9309 -904.049 13.2109 -179.741
lowerback 6.02997 2.65443 1.92493
upperback 3.92133 3.90625 -1.92876
thorax 0.929653 2.13318 -3.25313
lowerneck 7.38743 14.1309 13.9329
upperneck -6.38501 19.6078 -11.0719
head -0.619032 9.92942 -5.54558
rclavicle -1.73937e-015 1.59028e-015
rhumerus -37.6281 -24.0188 -69.1503
rradius 24.7656
rwrist -16.209
rhand -16.3288 -0.762076
rfingers 7.12502
rthumb 9.88299 -30.5101
lclavicle -1.73937e-015 1.59028e-015
lhumerus -35.8163 36.8536 61.7901
lradius 18.0926
lwrist -23.1941
lhand -4.7902 11.2065
lfingers 7.12502
lthumb 20.995 40.0901
rfemur -6.64141 20.2079 22.7879
rtibia 29.4064
rfoot -34.7409 -31.6467
rtoes -8.43646
lfemur -5.82205 -22.577 -23.5827
ltibia 30.2683
lfoot -27.3549 21.458
ltoes 10.0476
667
root 28.0169 15.337 -10.9533 -903.915 12.8703 -179.514
lowerback 5.9283 2.69921 2.10607
upperback 3.85067 3.96093 -1.81716
thorax 0.921246 2.15647 -3.23803
lowerneck 7.35338 14.1585 13.9676
upperneck -6.43327 19.6373 -11.2464
head -0.602096 9.94926 -5.59577
rclavicle 7.90169e-014 -4.49253e-014
rhumerus -37.4462 -23.9075 -69.8167
rradius 24.2841
rwrist -15.2697
rhand -16.5427 -0.621916
rfingers 7.12502
rthumb 9.67655 -30.3796
lclavicle 7.90169e-014 -4.49253e-014
lhumerus -37.6585 37.9903 60.5442
lradius 17.4857
lwrist -25.9656
lhand -5.64546 11.1856
lfingers 7.12502
lthumb 20.1731 40.1581
rfemur -6.4692 20.1781 23.0826
rtibia 29.2048
rfoot -35.1831 -31.7297
rtoes -7.61451
lfemur -5.8792 -23.0741 -23.4003
ltibia 30.3839
lfoot -27.5618 21.5742
ltoes 10.1394
668
root 28.0277 15.3374 -10.9723 -903.768 12.511 -179.405
lowerback 5.83152 2.74043 2.13393
upperback 3.76287 4.00416 -1.7429
thorax 0.883754 2.17118 -3.17621
lowerneck 7.32411 14.1844 14.007
upperneck -6.45835 19.668 -11.3611
head -0.584934 9.96771 -5.62912
rclavicle -2.38045e-014 -5.1684e-015
rhumerus -37.2604 -23.8985 -70.3696
rradius 23.7362
rwrist -14.3567
rhand -16.7172 -0.567718
rfingers 7.12502
rthumb 9.50819 -30.3332
lclavicle -2.38045e-014 -5.1684e-015
lhumerus -39.4812 39.1357 59.1559
lradius 17.0095
lwrist -28.2398
lhand -6.52958 11.3265
lfingers 7.12502
lthumb 19.3232 40.3865
rfemur -6.40374 20.1043 23.2337
rtibia 29.08
rfoot -35.5904 -31.8051
rtoes -7.02656
lfemur -6.01844 -23.3757 -23.2634
ltibia 30.4822
lfoot -27.6772 21.5453
ltoes 9.74853
669
root 28.0412 15.3385 -10.9887 -903.623 12.1403 -179.348
lowerback 5.76416 2.77917 2.08692
upperback 3.6658 4.04211 -1.69629
thorax 0.816758 2.18216 -3.10303
lowerneck 7.29391 14.1915 14.0699
upperneck -6.45322 19.678 -11.4371
head -0.563226 9.97396 -5.65413
rclavicle -3.0265e-014 1.66979e-014
rhumerus -37.1029 -24.0138 -70.8297
rradius 23.2138
rwrist -13.5556
rhand -16.8132 -0.57837
rfingers 7.12502
rthumb 9.41559 -30.3481
lclavicle -3.0265e-014 1.66979e-014
lhumerus -41.1662 40.088 57.8067
lradius 16.6882
lwrist -29.719
lhand -7.24392 11.7306
lfingers 7.12502
lthumb 18.6362 40.8579
rfemur -6.39164 19.9864 23.3244
rtibia 29.007
rfoot -35.9198 -31.909
rtoes -6.75005
lfemur -6.1991 -23.5078 -23.1199
ltibia 30.5677
lfoot -27.726 21.3617
ltoes 9.05143
670
root 28.0561 15.3399 -11.0035 -903.497 11.7565 -179.343
lowerback 5.72285 2.80888 1.96895
upperback 3.5752 4.06701 -1.66287
thorax 0.736976 2.18634 -3.00475
lowerneck 7.2571 14.1814 14.1405
upperneck -6.42179 19.6657 -11.5023
head -0.535841 9.96854 -5.67643
rclavicle 9.59136e-015 -3.97569e-016
rhumerus -36.9434 -24.1114 -71.2607
rradius 22.7652
rwrist -12.9865
rhand -16.8303 -0.634456
rfingers 7.12502
rthumb 9.39908 -30.4049
lclavicle 9.59136e-015 -3.97569e-016
lhumerus -42.6353 40.7199 56.7156
lradius 16.5593
lwrist -30.264
lhand -7.4428 12.3365
lfingers 7.12502
lthumb 18.4449 41.482
rfemur -6.3946 19.8202 23.36
rtibia 28.9681
rfoot -36.1464 -32.0564
rtoes -6.77517
lfemur -6.38211 -23.5437 -23.0023
ltibia 30.6385
lfoot -27.7177 21.0883
ltoes 8.21296
671
root 28.0696 15.341 -11.0173 -903.412 11.4084 -179.309
lowerback 5.74339 2.83129 1.89545
upperback 3.5063 4.08763 -1.61954
thorax 0.647345 2.19042 -2.92398
lowerneck 7.21196 14.1666 14.2028
upperneck -6.37694 19.6459 -11.5677
head -0.504862 9.95937 -5.69684
rclavicle -2.94698e-014 6.36111e-015
rhumerus -36.7594 -24.0803 -71.7178
rradius 22.4216
rwrist -12.6881
rhand -16.7562 -0.721331
rfingers 7.12502
rthumb 9.47054 -30.4885
lclavicle -2.94698e-014 6.36111e-015
lhumerus -43.7461 40.9098 56.0921
lradius 16.5988
lwrist -29.8289
lhand -7.63535 12.974
lfingers 7.12502
lthumb 18.2597 42.137
rfemur -6.3515 19.6407 23.4372
rtibia 28.9244
rfoot -36.2462 -32.2431
rtoes -6.99365
lfemur -6.51571 -23.5342 -22.8711
ltibia 30.714
lfoot -27.6739 20.8333
ltoes 7.34108
672
root 28.0818 15.3414 -11.0311 -903.38 11.083 -179.29
lowerback 5.80577 2.8476 1.83775
upperback 3.46524 4.10476 -1.58398
thorax 0.564677 2.19506 -2.86149
lowerneck 7.16318 14.149 14.2609
upperneck -6.33429 19.6213 -11.6359
head -0.474659 9.94796 -5.71765
rclavicle -2.65378e-014 -6.36111e-015
rhumerus -36.5608 -23.9016 -72.2248
rradius 22.1966
rwrist -12.6307
rhand -16.564 -0.825223
rfingers 7.12502
rthumb 9.65607 -30.5839
lclavicle -2.65378e-014 -6.36111e-015
lhumerus -44.3186 40.4716 56.1465
lradius 16.761
lwrist -28.4495
lhand -7.86176 13.6562
lfingers 7.12502
lthumb 18.0418 42.8394
rfemur -6.24839 19.4656 23.5126
rtibia 28.8796
rfoot -36.4204 -32.3571
rtoes -6.89386
lfemur -6.57523 -23.5472 -22.7964
ltibia 30.7801
lfoot -27.601 20.6557
ltoes 6.59113
673
root 28.092 15.3411 -11.0456 -903.391 10.8022 -179.236
lowerback 5.90394 2.86853 1.86578
upperback 3.45166 4.13544 -1.54893
thorax 0.497536 2.20957 -2.84917
lowerneck 7.1151 14.1282 14.3078
upperneck -6.30829 19.5913 -11.6931
head -0.452473 9.93359 -5.73542
rclavicle -1.54058e-015 9.14409e-015
rhumerus -36.3699 -23.6558 -72.7465
rradius 22.0765
rwrist -12.7073
rhand -16.2107 -0.921317
rfingers 7.12502
rthumb 9.99693 -30.6639
lclavicle -1.54058e-015 9.14409e-015
lhumerus -44.3701 39.4819 56.8476
lradius 16.994
lwrist -26.5146
lhand -8.54003 14.2231
lfingers 7.12502
lthumb 17.3892 43.4652
rfemur -6.08008 19.3156 23.6405
rtibia 28.8256
rfoot -36.5788 -32.4562
rtoes -6.68971
lfemur -6.55246 -23.609 -22.7338
ltibia 30.8374
lfoot -27.5281 20.5659
ltoes 6.14047
674
root 28.1037 15.3409 -11.0609 -903.4 10.5068 -179.264
lowerback 5.95239 2.89323 1.81373
upperback 3.45174 4.16818 -1.54265
thorax 0.468584 2.22546 -2.81829
lowerneck 7.06832 14.1017 14.3382
upperneck -6.29994 19.5524 -11.7226
head -0.441439 9.91403 -5.74521
rclavicle -9.79014e-015 -2.38542e-015
rhumerus -36.205 -23.4556 -73.2452
rradius 22.0308
rwrist -12.8385
rhand -15.6792 -0.981368
rfingers 7.12502
rthumb 10.5096 -30.6986
lclavicle -9.79014e-015 -2.38542e-015
lhumerus -43.928 37.9932 58.101
lradius 17.2248
lwrist -24.3696
lhand -9.58232 14.5102
lfingers 7.12502
lthumb 16.3858 43.8381
rfemur -5.91546 19.2107 23.6823
rtibia 28.7769
rfoot -36.9641 -32.447
rtoes -5.82322
lfemur -6.52427 -23.7139 -22.7685
ltibia 30.8691
lfoot -27.3838 20.5504
ltoes 5.86431
675
root 28.1162 15.3412 -11.0766 -903.387 10.2181 -179.318
lowerback 5.95565 2.92675 1.74601
upperback 3.45606 4.21142 -1.55013
thorax 0.469563 2.24697 -2.7903
lowerneck 7.02352 14.0703 14.3418
upperneck -6.30039 19.5056 -11.7121
head -0.441238 9.8895 -5.74186
rclavicle 2.30093e-014 -2.38542e-014
rhumerus -36.0597 -23.341 -73.7103
rradius 22.0245
rwrist -13.0034
rhand -14.993 -1.01491
rfingers 7.12502
rthumb 11.1715 -30.6975
lclavicle 2.30093e-014 -2.38542e-014
lhumerus -43.131 36.1326 59.7248
lradius 17.432
lwrist -22.3665
lhand -10.9027 14.5383
lfingers 7.12502
lthumb 15.1143 43.9665
rfemur -5.77802 19.1478 23.6919
rtibia 28.7299
rfoot -37.42 -32.3966
rtoes -4.64284
lfemur -6.51404 -23.8312 -22.8231
ltibia 30.8803
lfoot -27.1621 20.5987
ltoes 5.68193
676
root 28.1285 15.3421 -11.0919 -903.345 9.95437 -179.363
lowerback 5.94543 3.01831 1.76567
upperback 3.44055 4.3361 -1.62347
thorax 0.474329 2.31115 -2.88222
lowerneck 6.97273 13.9779 14.4693
upperneck -6.27973 19.3884 -11.6644
head -0.435274 9.82612 -5.74607
rclavicle -3.35449e-014 1.03368e-014
rhumerus -36.0146 -23.474 -74.1454
rradius 22.0538
rwrist -13.1862
rhand -14.2077 -1.06397
rfingers 7.12502
rthumb 11.9288 -30.7041
lclavicle -3.35449e-014 1.03368e-014
lhumerus -42.0547 33.9192 61.5197
lradius 17.617
lwrist -20.7733
lhand -12.1362 14.2579
lfingers 7.12502
lthumb 13.9258 43.7716
rfemur -5.68482 19.1119 23.6999
rtibia 28.6952
rfoot -37.8448 -32.3391
rtoes -3.39171
lfemur -6.52097 -23.9507 -22.8556
ltibia 30.8674
lfoot -26.9147 20.6661
ltoes 5.63964
677
root 28.1403 15.3431 -11.1066 -903.283 9.72715 -179.377
lowerback 5.94747 3.16601 1.89683
upperback 3.401 4.54121 -1.75718
thorax 0.467097 2.41757 -3.10356
lowerneck 6.92499 13.8222 14.7249
upperneck -6.24216 19.237 -11.5852
head -0.421868 9.69638 -5.75939
rclavicle 3.11595e-014 -2.46493e-014
rhumerus -36.0437 -23.7574 -74.6037
rradius 22.1059
rwrist -13.4166
rhand -13.4014 -1.16436
rfingers 7.12502
rthumb 12.7062 -30.7578
lclavicle 3.11595e-014 -2.46493e-014
lhumerus -40.8571 31.5348 63.2664
lradius 17.7944
lwrist -19.679
lhand -13.1015 13.8398
lfingers 7.12502
lthumb 12.9954 43.415
rfemur -5.62076 19.0924 23.738
rtibia 28.6631
rfoot -38.1593 -32.3233
rtoes -2.31051
lfemur -6.53494 -24.0731 -22.8433
ltibia 30.8463
lfoot -26.7117 20.7142
ltoes 5.77504
678
root 28.1523 15.3442 -11.1203 -903.209 9.53003 -179.376
lowerback 5.96471 3.35574 2.08697
upperback 3.3392 4.80553 -1.93244
thorax 0.443439 2.5545 -3.40501
lowerneck 6.88949 13.6261 15.0664
upperneck -6.19443 19.0057 -11.4679
head -0.413326 9.56849 -5.77794
rclavicle 5.17834e-014 -4.25399e-014
rhumerus -36.0989 -24.0206 -75.1321
rradius 22.1692
rwrist -13.7006
rhand -12.6179 -1.32346
rfingers 7.12502
rthumb 13.4615 -30.8684
lclavicle 5.17834e-014 -4.25399e-014
lhumerus -39.6367 29.099 64.8756
lradius 17.9801
lwrist -18.9236
lhand -13.4304 13.4311
lfingers 7.12502
lthumb 12.6783 43.0263
rfemur -5.57762 19.1047 23.7981
rtibia 28.6302
rfoot -38.3648 -32.3897
rtoes -1.52513
lfemur -6.55998 -24.1953 -22.8029
ltibia 30.8275
lfoot -26.57 20.7385
ltoes 5.97656
679
root 28.1646 15.3453 -11.1327 -903.13 9.3474 -179.368
lowerback 5.99335 3.55732 2.28462
upperback 3.26513 5.08633 -2.11705
thorax 0.407203 2.69944 -3.72242
lowerneck 6.86684 13.4161 15.433
upperneck -6.1436 18.7597 -11.3309
head -0.408213 9.43213 -5.79617
rclavicle 1.15295e-014 -3.18055e-015
rhumerus -36.1222 -24.1067 -75.7478
rradius 22.2283
rwrist -13.9776
rhand -11.8286 -1.51302
rfingers 7.12502
rthumb 14.2222 -31.0061
lclavicle 1.15295e-014 -3.18055e-015
lhumerus -38.4795 26.8479 66.268
lradius 18.1806
lwrist -18.386
lhand -13.6302 12.9667
lfingers 7.12502
lthumb 12.4857 42.5737
rfemur -5.54463 19.1615 23.8777
rtibia 28.5961
rfoot -38.4707 -32.5701
rtoes -1.13954
lfemur -6.59803 -24.3194 -22.7444
ltibia 30.8173
lfoot -26.5007 20.723
ltoes 6.21544
